<svg xmlns="http://www.w3.org/2000/svg" xmlns:xlink="http://www.w3.org/1999/xlink" viewBox="0 0 1611.22 569.39"><defs><style>.cls-1,.cls-25,.cls-26,.cls-27,.cls-3{fill:#fcc03a;}.cls-1,.cls-14,.cls-2,.cls-8{stroke:#2c2b38;stroke-width:10.86px;}.cls-1,.cls-8{stroke-linejoin:round;}.cls-2,.cls-9{fill:#fd363f;}.cls-13,.cls-14,.cls-2{stroke-miterlimit:10;}.cls-4{fill:url(#radial-gradient);}.cls-5{clip-path:url(#clip-path);}.cls-6{fill:#fa9100;}.cls-7{fill:#f9f8ff;}.cls-14,.cls-8{fill:none;}.cls-10{clip-path:url(#clip-path-2);}.cls-11,.cls-23{fill:#c3192c;}.cls-12,.cls-13{fill:#fff;}.cls-13{stroke:#c3192c;stroke-linecap:round;stroke-width:3.62px;}.cls-15{clip-path:url(#clip-path-3);}.cls-16{clip-path:url(#clip-path-4);}.cls-17,.cls-28{fill:#2c2b38;}.cls-18{clip-path:url(#clip-path-5);}.cls-19{fill:url(#linear-gradient);}.cls-20{clip-path:url(#clip-path-6);}.cls-21{clip-path:url(#clip-path-7);}.cls-22{fill:#f79001;}.cls-23{font-size:149.57px;font-family:Nunito-ExtraBold, Nunito;font-weight:800;}.cls-24{font-family:Nunito-Bold, Nunito;font-weight:700;fill:#000;}.cls-25,.cls-26,.cls-27{font-family:Nunito-Medium, Nunito;font-weight:500;}.cls-26{letter-spacing:0em;}.cls-27{letter-spacing:0em;}.cls-28{font-size:34.14px;font-family:Nunito-Light, Nunito;font-weight:300;letter-spacing:0.49em;}.cls-29{letter-spacing:0.42em;}.cls-30{letter-spacing:0.5em;}.cls-31{letter-spacing:0.48em;}.cls-32,.cls-33{letter-spacing:0.5em;}.cls-33,.cls-34,.cls-35{font-family:Nunito-SemiBold, Nunito;font-weight:600;}.cls-34{letter-spacing:0.49em;}.cls-35{letter-spacing:0.48em;}</style><radialGradient id="radial-gradient" cx="284.69" cy="284.69" fy="400.8089073452669" r="284.69" gradientTransform="translate(0)" gradientUnits="userSpaceOnUse"><stop offset="0.18" stop-color="#a3132b"/><stop offset="0.4" stop-color="#a6142c"/><stop offset="0.55" stop-color="#af172d"/><stop offset="0.68" stop-color="#be1d30"/><stop offset="0.8" stop-color="#d32534"/><stop offset="0.91" stop-color="#ee2f3a"/><stop offset="0.95" stop-color="#fb343c"/></radialGradient><clipPath id="clip-path"><path class="cls-1" d="M489.59,228a84.44,84.44,0,0,0,1.84-17.49c0-72.29-92.6-130.89-206.82-130.89S77.78,138.22,77.78,210.51A84.44,84.44,0,0,0,79.63,228Z"/></clipPath><clipPath id="clip-path-2"><rect class="cls-2" x="51.86" y="234.03" width="465.5" height="72.98" rx="34.87"/></clipPath><clipPath id="clip-path-3"><rect class="cls-2" x="51.86" y="300.38" width="465.5" height="72.98" rx="34.87"/></clipPath><clipPath id="clip-path-4"><rect class="cls-2" x="51.86" y="371.55" width="465.5" height="72.98" rx="34.87"/></clipPath><clipPath id="clip-path-5"><path class="cls-3" d="M274.35,418.59a23.59,23.59,0,0,1-20-10.15c-3.62-5-5.81-11.79-6.55-20.38-12.34,20.27-26,30.53-40.51,30.53-8.76,0-15.89-3.27-21.19-9.71s-7.83-14.68-7.83-24.9c0-11.5,4.12-29.07,12.26-52.22,7.95-22.64,12-38.8,12-48a13.34,13.34,0,0,0-3.07-9.08,9.13,9.13,0,0,0-7.27-3.4c-4.81,0-9.78,3.13-14.79,9.32s-7.73,12.83-7.73,19.33c0,4.82,2.3,10,6.83,15.39,2.57,3.11,3.61,5,3.61,6.63s-.89,3.56-5.23,8.79c-3.62,4.38-6.86,6.51-9.88,6.51s-6.39-2-9.94-6-5.16-9.66-5.16-17.09c0-14.48,5.15-27.82,15.31-39.64s21.81-18,34.37-18c9.61,0,17.84,4,24.44,11.91s9.8,17.56,9.8,29.06c-.11,11.79-3.94,28.57-11.39,49.88-7.27,20.81-10.94,34.84-10.9,41.71,0,2.84.66,5,2,6.53a6.44,6.44,0,0,0,5.17,2.18c5.38,0,11-4.8,16.77-14.26,6.09-10,11.74-24.68,16.81-43.54l10.22-38.19A274.07,274.07,0,0,1,276,262.05c.78-1.9,3.09-3.3,12.08-4.29,6.42-.7,11-1,13.9-1,5.47,0,6.62,2.23,6.62,4.11a2,2,0,0,1-.08.6l-19.93,75.73c-5.6,21.89-8.45,38.09-8.45,48.12,0,4,.8,7.09,2.39,9.31a6.49,6.49,0,0,0,5.67,3c2.79,0,8.12-1.89,17.66-10.91,7.9-7.45,14.66-17.14,20.08-28.78a84.07,84.07,0,0,0,8.15-35.72c0-12.95-3.21-26-9.54-38.88-2.6-5.51-3-7.2-3-8.21,0-4,3.3-8.06,10.08-12.33,6.52-4.09,11-6,14.16-6,3.64,0,6.71,3.6,9.67,11.35a59.83,59.83,0,0,1,3.91,21.41c0,19.27-4.57,39.26-13.58,59.4s-20.37,36.88-33.8,49.84C298.33,411.9,285.67,418.59,274.35,418.59Z"/></clipPath><linearGradient id="linear-gradient" x1="212.47" y1="244.47" x2="218.27" y2="345.7" gradientUnits="userSpaceOnUse"><stop offset="0.15" stop-color="#fa9100" stop-opacity="0"/><stop offset="0.5" stop-color="#fa9100" stop-opacity="0.43"/><stop offset="0.94" stop-color="#fa9100"/></linearGradient><clipPath id="clip-path-6"><path class="cls-3" d="M372.91,415.05c-9.65,0-17.57-3.16-23.54-9.38s-9-14.42-9-24.42c0-14.57,5.11-27.92,15.18-39.68s21.68-17.89,34.21-17.89c6.72,0,12.23,1.8,16.36,5.35a18.06,18.06,0,0,1,6.4,14.34c0,14.69-14.17,26.17-43.29,35.05,2.69,10.33,8.57,15.36,18,15.36a22,22,0,0,0,11.31-3.2c3.78-2.24,9.67-7.38,17.51-15.28a2.35,2.35,0,0,1,1.69-.71,2.39,2.39,0,0,1,2.39,2.38v11.44a2.41,2.41,0,0,1-.71,1.7c-8.52,8.38-16.3,14.67-23.13,18.69A45.34,45.34,0,0,1,372.91,415.05Zm11.23-78.64c-3.46,0-7,3-10.48,8.83-3.33,5.57-5.19,12.81-5.56,21.53,13.86-4.61,20.61-12.23,20.61-23.2C388.71,336.41,385.62,336.41,384.14,336.41Z"/></clipPath><clipPath id="clip-path-7"><path class="cls-1" d="M79.9,444.53H497.16a0,0,0,0,1,0,0V448a72.56,72.56,0,0,1-72.56,72.56H152.45A72.56,72.56,0,0,1,79.9,448v-3.44a0,0,0,0,1,0,0Z"/></clipPath></defs><g id="Layer_2" data-name="Layer 2"><g id="Layer_2-2" data-name="Layer 2"><ellipse class="cls-4" cx="284.61" cy="284.69" rx="284.61" ry="284.69"/><path class="cls-3" d="M489.59,228a84.44,84.44,0,0,0,1.84-17.49c0-72.29-92.6-130.89-206.82-130.89S77.78,138.22,77.78,210.51A84.44,84.44,0,0,0,79.63,228Z"/><g class="cls-5"><path class="cls-6" d="M62.11,208.7H470.93s-5.35-79.62-133.52-129.08c0,0,103.37,12.06,128.7,37.39s44.62,109.78,41,129.08-455.86,0-455.86,0Z"/><path class="cls-7" d="M89.84,231.62c3.88-19.15,14-54.37,43.42-84.45,8.35-8.53,26.68-25.25,74.77-43.43,32.55-12.3,84.08-27.29,152-28.95-61-8.19-109.29-1.19-139.75,4.83C116.38,100.13,77.78,127.87,73,161.65c-3.81,26.66-8.11,65.69,5.66,71.28C82.42,234.47,86.64,233.15,89.84,231.62Z"/></g><path class="cls-8" d="M489.59,228a84.44,84.44,0,0,0,1.84-17.49c0-72.29-92.6-130.89-206.82-130.89S77.78,138.22,77.78,210.51A84.44,84.44,0,0,0,79.63,228Z"/><circle class="cls-7" cx="375.74" cy="139.56" r="9.58"/><circle class="cls-7" cx="350.54" cy="115.77" r="8.19"/><circle class="cls-7" cx="327.44" cy="131.75" r="10.29"/><circle class="cls-7" cx="307.19" cy="182.13" r="10.23"/><circle class="cls-7" cx="283.19" cy="125.05" r="7.67"/><circle class="cls-7" cx="258.23" cy="147.6" r="8.62"/><circle class="cls-7" cx="234.43" cy="163.21" r="9.98"/><circle class="cls-7" cx="210.86" cy="130.87" r="9.55"/><circle class="cls-7" cx="188.64" cy="161.88" r="8.41"/><rect class="cls-9" x="51.86" y="234.03" width="465.5" height="72.98" rx="34.87"/><g class="cls-10"><path class="cls-11" d="M64.22,274.44S69,288.92,104,290.12s49.72,2.42,54.41,16.89c0,0,4.69,14.48-18.23,14.48s-76,2.41-85.62-12.07S53.36,273.23,64.22,274.44Z"/><path class="cls-11" d="M102.92,234s1.9,32,8.43,36.49h17.14s34.94,8.14,39.9,36.49h20.25s41-30.76,5.61-73Z"/><path class="cls-12" d="M77.78,301.54s-16-21.07-7.53-38,40-14.72,56.77-14.6,29.32-4.7,32.1-14.95-52.69-13.87-52.69-13.87L39.41,234S25.63,264.79,25.63,267.2s13.26,25.34,13.26,25.34,7.84,16.8,38.89,9"/><line class="cls-13" x1="86.34" y1="270.52" x2="465.69" y2="270.52"/><path class="cls-12" d="M294.56,234s0,14.85,27.44,14.85H455.55s35,2,37.39-7.61S328.94,229.2,294.56,234Z"/></g><rect class="cls-14" x="51.86" y="234.03" width="465.5" height="72.98" rx="34.87"/><rect class="cls-9" x="51.86" y="300.38" width="465.5" height="72.98" rx="34.87"/><g class="cls-15"><path class="cls-11" d="M56.3,318.22S51,360.09,139,360.09s108.71,4.83,115.26,11.46S90.32,399.9,64,373.36s-22.86-54.78-7.7-55.14"/><line class="cls-13" x1="127.65" y1="336.87" x2="414.55" y2="336.87"/><path class="cls-11" d="M430,298.12s3.23,16.45-10,19.91-45.51-2.2-62.55,10.28-23.21,9.21-23.21,9.21-29.87-18.44.81-37.14S430,298.12,430,298.12Z"/><path class="cls-11" d="M208.11,302.79s28.45,24.92,19.76,36S243.43,374,243.43,374l19.63-1.82S238.72,345.81,241,338.77s26.41-16.68,11.94-32.36S208.11,302.79,208.11,302.79Z"/></g><rect class="cls-14" x="51.86" y="300.38" width="465.5" height="72.98" rx="34.87"/><rect class="cls-9" x="51.86" y="371.55" width="465.5" height="72.98" rx="34.87"/><g class="cls-16"><path class="cls-11" d="M101.6,360.09s14.5,25.35,44,29.56,49.51,8,53.39,25.4,14.85,27.07,28.66,29.48-26.36-50.66,3.38-71.17S101.6,360.09,101.6,360.09Z"/><path class="cls-11" d="M424.2,364.31s-57.81,25.34-39.15,80.22-41.66,0-41.66,0,31.24-44,22.86-71.17S424.2,364.31,424.2,364.31Z"/><path class="cls-12" d="M90.15,448.76S43.1,408.2,85.92,369.37c0,0-46.42-28-54.87,10.63S52.76,457.2,90.15,448.76Z"/><path class="cls-6" d="M274.66,411.36s26.53,14.48,4.82,30.16-86.08,3-86.08,3S268.63,422.22,274.66,411.36Z"/><path class="cls-14" d="M134.09,444.53s114-6.63,140.57-33.17,80.36-38.2,133-39.61"/><rect class="cls-17" x="351.83" y="423.42" width="227.93" height="25.33" rx="12.66"/><path class="cls-17" d="M319.26,440.31s27.69-2.94,37.36-14.13l15.71,3.27-29.22,15.08Z"/></g><rect class="cls-14" x="51.86" y="371.55" width="465.5" height="72.98" rx="34.87"/><path class="cls-17" d="M272.56,431.7a34.24,34.24,0,0,1-28.69-14.55q-1.12-1.54-2.1-3.21c-11.09,11.8-23.23,17.76-36.3,17.76-11.94,0-22.13-4.71-29.47-13.62-6.81-8.27-10.27-18.94-10.27-31.71,0-9.77,2.41-22.61,7.35-39a19,19,0,0,1-9.9,2.92c-6.32,0-12.38-3.25-18-9.67-5.19-5.91-7.82-14-7.82-24.16,0-17.12,6-32.81,17.9-46.63,12.38-14.4,26.68-21.7,42.5-21.7,12.76,0,24.06,5.45,32.67,15.75,8.16,9.77,12.3,21.86,12.3,35.94V300c-.12,13.13-4.05,30.56-12,53.31-5.79,16.56-8.36,26.24-9.48,31.82a49.88,49.88,0,0,0,3.26-4.78c5.56-9.16,10.81-22.87,15.62-40.75l10.21-38.18a286.52,286.52,0,0,1,14-41.19c3.78-8.85,14-10,20.76-10.72s11.73-1.1,15.06-1.1c12,0,16.26,7.39,17.16,12.68a48.49,48.49,0,0,1,6.83-5c8.53-5.37,14.47-7.65,19.86-7.65,12.72,0,18,13.73,19.69,18.24a70.52,70.52,0,0,1,4.61,25.24c0,20.8-4.88,42.26-14.51,63.79-9.57,21.37-21.72,39.26-36.14,53.17C301.7,424.22,287,431.7,272.56,431.7Zm24.58-89.43c-6.65,25.94-8.08,38.93-8.1,45.26a59.66,59.66,0,0,0,7.63-6.3c6.91-6.53,12.88-15.11,17.73-25.52a73.46,73.46,0,0,0,7.14-31.19c0-11.29-2.83-22.77-8.43-34.13l-.09-.19c-.52-1.1-1-2.1-1.38-3ZM189.77,284.51c-1,.4-3.06,1.73-5.87,5.19-3.59,4.44-5.34,8.55-5.34,12.58,0,2.16,1.54,5.18,4.32,8.48l.08.1c.51.62,1,1.25,1.49,1.89C188.88,298,190,290.21,190,286.11A4.82,4.82,0,0,0,189.77,284.51Z"/><path class="cls-17" d="M248.1,381.92q-19.57,36.68-42.63,36.67-12.06,0-19.35-8.84t-7.29-23.38q0-16.94,12.13-51.43t12.12-48.83a15.71,15.71,0,0,0-3.64-10.63,11.51,11.51,0,0,0-9.08-4.23q-8.37,0-16.64,10.2t-8.26,20.83q0,8.13,7.39,16.93,3,3.69,3.05,5.09,0,1.63-4.68,7.27t-8,5.65q-3.6,0-8.16-5.21t-4.57-15.52q0-20.94,14.74-38.08t32.56-17.14q13.38,0,22.62,11.05t9.24,27.53q-.15,17.36-11.26,49.1t-11,42.5a11.88,11.88,0,0,0,2.61,8.1,8.78,8.78,0,0,0,7,3q9.47,0,18.81-15.4T252.77,343L263,304.78a270.93,270.93,0,0,1,13.37-39.39q.76-1.84,10.16-2.88t13.63-1c2.83,0,4.24.58,4.24,1.73l-19.93,75.73q-8.52,33.32-8.53,48.72,0,6.73,2.83,10.7a8.88,8.88,0,0,0,7.61,4q7.06,0,19.3-11.56t20.61-29.51a86.07,86.07,0,0,0,8.37-36.73q0-20.07-9.79-39.93-2.72-5.74-2.72-7.16,0-4.67,9-10.3T344,261.48q3.69,0,7.45,9.82a57.16,57.16,0,0,1,3.75,20.56q0,28.54-13.37,58.43t-33.28,49.1q-19.89,19.2-36,19.2a21.23,21.23,0,0,1-18.1-9.17Q247.77,400.26,248.1,381.92Z"/><path class="cls-17" d="M373.5,428.16c-12.5,0-23.31-4.39-31.27-12.68s-12-19-12-31.85c0-17.2,6-32.9,17.77-46.66,12.3-14.35,26.55-21.63,42.35-21.63,9.35,0,17.2,2.67,23.34,7.93a28.74,28.74,0,0,1,10.14,22.48,32.66,32.66,0,0,1-7.33,20.62,13.31,13.31,0,0,1,1.78-.12,13.11,13.11,0,0,1,13.1,13.11v11.43a13.11,13.11,0,0,1-3.91,9.34c-9.27,9.13-17.51,15.77-25.2,20.3A56,56,0,0,1,373.5,428.16Zm22.14-45.78c-2.16,1.09-4.32,2.07-6.43,3a11.57,11.57,0,0,0,4.46-1.62A21.21,21.21,0,0,0,395.64,382.38Z"/><path class="cls-17" d="M418.33,390.79q-12.63,12.43-22.66,18.34a42.82,42.82,0,0,1-22.17,5.92q-13.51,0-21.81-8.65t-8.3-22.77q0-21.08,14.61-38.13t32.4-17.05q9.24,0,14.81,4.77a15.73,15.73,0,0,1,5.57,12.53q0,20.58-43.74,33.41,4,19.38,20.78,19.39A24.26,24.26,0,0,0,400.34,395q6-3.54,18-15.66ZM366.25,372.4q25.44-7.17,25.44-26.45,0-9.54-7-9.54-6.56,0-12.52,10T366.25,372.4Z"/><path class="cls-3" d="M274.35,418.59a23.59,23.59,0,0,1-20-10.15c-3.62-5-5.81-11.79-6.55-20.38-12.34,20.27-26,30.53-40.51,30.53-8.76,0-15.89-3.27-21.19-9.71s-7.83-14.68-7.83-24.9c0-11.5,4.12-29.07,12.26-52.22,7.95-22.64,12-38.8,12-48a13.34,13.34,0,0,0-3.07-9.08,9.13,9.13,0,0,0-7.27-3.4c-4.81,0-9.78,3.13-14.79,9.32s-7.73,12.83-7.73,19.33c0,4.82,2.3,10,6.83,15.39,2.57,3.11,3.61,5,3.61,6.63s-.89,3.56-5.23,8.79c-3.62,4.38-6.86,6.51-9.88,6.51s-6.39-2-9.94-6-5.16-9.66-5.16-17.09c0-14.48,5.15-27.82,15.31-39.64s21.81-18,34.37-18c9.61,0,17.84,4,24.44,11.91s9.8,17.56,9.8,29.06c-.11,11.79-3.94,28.57-11.39,49.88-7.27,20.81-10.94,34.84-10.9,41.71,0,2.84.66,5,2,6.53a6.44,6.44,0,0,0,5.17,2.18c5.38,0,11-4.8,16.77-14.26,6.09-10,11.74-24.68,16.81-43.54l10.22-38.19A274.07,274.07,0,0,1,276,262.05c.78-1.9,3.09-3.3,12.08-4.29,6.42-.7,11-1,13.9-1,5.47,0,6.62,2.23,6.62,4.11a2,2,0,0,1-.08.6l-19.93,75.73c-5.6,21.89-8.45,38.09-8.45,48.12,0,4,.8,7.09,2.39,9.31a6.49,6.49,0,0,0,5.67,3c2.79,0,8.12-1.89,17.66-10.91,7.9-7.45,14.66-17.14,20.08-28.78a84.07,84.07,0,0,0,8.15-35.72c0-12.95-3.21-26-9.54-38.88-2.6-5.51-3-7.2-3-8.21,0-4,3.3-8.06,10.08-12.33,6.52-4.09,11-6,14.16-6,3.64,0,6.71,3.6,9.67,11.35a59.83,59.83,0,0,1,3.91,21.41c0,19.27-4.57,39.26-13.58,59.4s-20.37,36.88-33.8,49.84C298.33,411.9,285.67,418.59,274.35,418.59Z"/><g class="cls-18"><path class="cls-6" d="M251.55,407.21s49.44,20,96-62.36h0l-.08,3.67L334.34,380.7s-9.53,31-36.93,40.52S252.15,414.66,251.55,407.21Z"/><path class="cls-19" d="M189.45,254.12s34.55-.89,33.73,30.67-17,90.5-8.33,100.35c0,0,20.61-68.79,23-77.13S243.51,244.32,189.45,254.12Z"/><path class="cls-6" d="M281.12,256.5s15.83-.88,12.49,30.67-17.64,69.7-10.49,88.76l28.81-114.66s-.22-10.46-13.33-9.27S281.12,256.5,281.12,256.5Z"/><path class="cls-12" d="M164,341.37l9.42-3.82s9.64-10.48-5.85-17.63-9.51-34.17-2.37-41.51,4.75-9.73,0-9.73S122.29,321.12,164,341.37Z"/><path class="cls-12" d="M260.48,292.52s15.62-10.13,20.91-21.16,29.46-3,25.72,9.08,9.36-27.25,9.36-27.25-33.53-12.45-41.18-5S260.48,292.52,260.48,292.52Z"/><path class="cls-12" d="M326,293.71s9,4.81,9.24-6.54-.68-11.93,5.17-15.81,16.79-13.63,3-15.9-30.42,4.29-26.88,15.9A132.16,132.16,0,0,0,326,293.71Z"/></g><path class="cls-3" d="M372.91,415.05c-9.65,0-17.57-3.16-23.54-9.38s-9-14.42-9-24.42c0-14.57,5.11-27.92,15.18-39.68s21.68-17.89,34.21-17.89c6.72,0,12.23,1.8,16.36,5.35a18.06,18.06,0,0,1,6.4,14.34c0,14.69-14.17,26.17-43.29,35.05,2.69,10.33,8.57,15.36,18,15.36a22,22,0,0,0,11.31-3.2c3.78-2.24,9.67-7.38,17.51-15.28a2.35,2.35,0,0,1,1.69-.71,2.39,2.39,0,0,1,2.39,2.38v11.44a2.41,2.41,0,0,1-.71,1.7c-8.52,8.38-16.3,14.67-23.13,18.69A45.34,45.34,0,0,1,372.91,415.05Zm11.23-78.64c-3.46,0-7,3-10.48,8.83-3.33,5.57-5.19,12.81-5.56,21.53,13.86-4.61,20.61-12.23,20.61-23.2C388.71,336.41,385.62,336.41,384.14,336.41Z"/><g class="cls-20"><path class="cls-6" d="M340.41,392s48.73,29.12,79.71,0c0,0-23.83,38.8-47.66,30.46S339.33,406.77,340.41,392Z"/><path class="cls-12" d="M416.54,347.33s-13.1,6-14-3.67c-1.47-16.52-19.39-23.74-46.79-3.48,0,0-2.57-8,10-12.92s47.15-10.91,49.53,2.2S416.54,347.33,416.54,347.33Z"/></g><path class="cls-3" d="M79.9,444.53H497.16a0,0,0,0,1,0,0V448a72.56,72.56,0,0,1-72.56,72.56H152.45A72.56,72.56,0,0,1,79.9,448v-3.44a0,0,0,0,1,0,0Z"/><g class="cls-21"><path class="cls-22" d="M476.66,439.74c0,.17,0,1.06,0,2.5a51.92,51.92,0,0,1-52,50.55H163.11c-.06,0-38.55-2.42-44.61-15.66,0,0,0,0,0,0l-33.4-2.27h0C84.5,475.66,62.23,511,98,523c36.18,12.06,284.61,10.85,309.94,7.23s85.62-1.2,95.27-22.92,35-84.42-26.5-67.56C476.67,439.7,476.66,439.72,476.66,439.74Z"/><rect class="cls-12" x="104.62" y="440.31" width="375.06" height="19.3" rx="9.65"/><path class="cls-12" d="M103.41,495.8s-15.68-35-1.2-48.25c0,0-10.86-9.24-22.31-5.22S84.12,491,103.41,495.8Z"/></g><path class="cls-8" d="M79.9,444.53H497.16a0,0,0,0,1,0,0V448a72.56,72.56,0,0,1-72.56,72.56H152.45A72.56,72.56,0,0,1,79.9,448v-3.44a0,0,0,0,1,0,0Z"/><text class="cls-23" transform="translate(612.22 312.9)">WE<tspan class="cls-24" x="258.01" y="0"> </tspan><tspan class="cls-25" x="298.55" y="0">BU</tspan><tspan class="cls-26" x="509.45" y="0">R</tspan><tspan class="cls-25" x="609.36" y="0">GE</tspan><tspan class="cls-27" x="806.05" y="0">R</tspan><tspan class="cls-25" x="906.56" y="0">S</tspan></text><text class="cls-28" transform="translate(871.09 374.54)">E<tspan class="cls-29" x="36.23" y="0">A</tspan><tspan class="cls-30" x="75.35" y="0">T </tspan><tspan class="cls-31" x="138.38" y="0">F</tspan><tspan class="cls-32" x="173.34" y="0">OR </tspan><tspan class="cls-33" x="281.64" y="0">H</tspan><tspan class="cls-34" x="324.9" y="0">E</tspan><tspan class="cls-33" x="361.61" y="0">A</tspan><tspan class="cls-35" x="403.81" y="0">R</tspan><tspan class="cls-33" x="443.31" y="0">T</tspan></text></g></g></svg>